<svg id="SvgjsSvg1095" width="721" height="335" xmlns="http://www.w3.org/2000/svg" version="1.1" xmlns:xlink="http://www.w3.org/1999/xlink" xmlns:svgjs="http://svgjs.com/svgjs"><defs id="SvgjsDefs1096"><marker id="SvgjsMarker1148" markerWidth="14" markerHeight="10" refX="10" refY="5" viewBox="0 0 14 10" orient="auto" markerUnits="userSpaceOnUse" stroke-dasharray="0,0"><path id="SvgjsPath1149" d="M0,0 L14,5 L0,10 L0,0" fill="#323232" stroke="#323232" stroke-width="1"></path></marker><marker id="SvgjsMarker1170" markerWidth="14" markerHeight="10" refX="10" refY="5" viewBox="0 0 14 10" orient="auto" markerUnits="userSpaceOnUse" stroke-dasharray="0,0"><path id="SvgjsPath1171" d="M0,0 L14,5 L0,10 L0,0" fill="#323232" stroke="#323232" stroke-width="1"></path></marker><marker id="SvgjsMarker1186" markerWidth="14" markerHeight="10" refX="10" refY="5" viewBox="0 0 14 10" orient="auto" markerUnits="userSpaceOnUse" stroke-dasharray="0,0"><path id="SvgjsPath1187" d="M0,0 L14,5 L0,10 L0,0" fill="#323232" stroke="#323232" stroke-width="1"></path></marker><marker id="SvgjsMarker1190" markerWidth="14" markerHeight="10" refX="10" refY="5" viewBox="0 0 14 10" orient="auto" markerUnits="userSpaceOnUse" stroke-dasharray="0,0"><path id="SvgjsPath1191" d="M0,0 L14,5 L0,10 L0,0" fill="#323232" stroke="#323232" stroke-width="1"></path></marker></defs><g id="SvgjsG1097" transform="translate(39,136.00000190734863)"><path id="SvgjsPath1098" d="M 113 0Q 104 0 104 6.9L 104 27.6Q 104 34.5 91 34.5Q 104 34.5 104 41.4L 104 62.1Q 104 69 113 69" stroke="rgba(50,50,50,1)" stroke-width="2" fill="none"></path><path id="SvgjsPath1099" d="M 0 0L 113 0L 113 69L 0 69Z" stroke="none" fill="none"></path><g id="SvgjsG1100"><text id="SvgjsText1101" font-family="微软雅黑" text-anchor="end" font-size="13px" width="86px" fill="#323232" font-weight="700" align="middle" lineHeight="125%" anchor="end" family="微软雅黑" size="13px" weight="700" font-style="" opacity="1" y="24.875" transform="rotate(0)"></text></g></g><g id="SvgjsG1102" transform="translate(152,26.000001907348633)"><path id="SvgjsPath1103" d="M 0 4Q 0 0 4 0L 116 0Q 120 0 120 4L 120 280Q 120 284 116 284L 4 284Q 0 284 0 280Z" stroke="rgba(50,50,50,1)" stroke-width="2" fill-opacity="1" fill="#ffffff"></path><g id="SvgjsG1104"><text id="SvgjsText1105" font-family="微软雅黑" text-anchor="middle" font-size="13px" width="100px" fill="#323232" font-weight="700" align="middle" lineHeight="125%" anchor="middle" family="微软雅黑" size="13px" weight="700" font-style="" opacity="1" y="132.375" transform="rotate(0)"><tspan id="SvgjsTspan1106" dy="16" x="60"><tspan id="SvgjsTspan1107" style="text-decoration:;">         </tspan></tspan></text></g></g><g id="SvgjsG1108" transform="translate(355,117.50000190734863)"><path id="SvgjsPath1109" d="M 0 4Q 0 0 4 0L 238 0Q 242 0 242 4L 242 63Q 242 67 238 67L 4 67Q 0 67 0 63Z" stroke="rgba(50,50,50,1)" stroke-width="2" fill-opacity="1" fill="#ffffff"></path><g id="SvgjsG1110"><text id="SvgjsText1111" font-family="微软雅黑" text-anchor="middle" font-size="13px" width="222px" fill="#323232" font-weight="700" align="middle" lineHeight="125%" anchor="middle" family="微软雅黑" size="13px" weight="700" font-style="" opacity="1" y="23.875" transform="rotate(0)"></text></g></g><g id="SvgjsG1112" transform="translate(152,25.000001907348633)"><path id="SvgjsPath1113" d="M 0 4Q 0 0 4 0L 116 0Q 120 0 120 4L 120 51.99999809265137Q 120 55.99999809265137 116 55.99999809265137L 4 55.99999809265137Q 0 55.99999809265137 0 51.99999809265137Z" stroke="rgba(50,50,50,1)" stroke-width="2" fill-opacity="1" fill="#ffffff"></path><g id="SvgjsG1114"><text id="SvgjsText1115" font-family="微软雅黑" text-anchor="middle" font-size="13px" width="100px" fill="#323232" font-weight="700" align="middle" lineHeight="125%" anchor="middle" family="微软雅黑" size="13px" weight="700" font-style="" opacity="1" y="10.374999046325684" transform="rotate(0)"><tspan id="SvgjsTspan1116" dy="16" x="60"><tspan id="SvgjsTspan1117" style="text-decoration:;">Execution </tspan></tspan><tspan id="SvgjsTspan1118" dy="16" x="60"><tspan id="SvgjsTspan1119" style="text-decoration:;">Stack</tspan></tspan></text></g></g><g id="SvgjsG1120" transform="translate(152,81)"><path id="SvgjsPath1121" d="M 0 4Q 0 0 4 0L 116 0Q 120 0 120 4L 120 51.00000190734863Q 120 55.00000190734863 116 55.00000190734863L 4 55.00000190734863Q 0 55.00000190734863 0 51.00000190734863Z" stroke="rgba(50,50,50,1)" stroke-width="2" fill-opacity="1" fill="#ffffff"></path><g id="SvgjsG1122"><text id="SvgjsText1123" font-family="微软雅黑" text-anchor="middle" font-size="13px" width="100px" fill="#323232" font-weight="700" align="middle" lineHeight="125%" anchor="middle" family="微软雅黑" size="13px" weight="700" font-style="" opacity="1" y="9.875000953674316" transform="rotate(0)"><tspan id="SvgjsTspan1124" dy="16" x="60"><tspan id="SvgjsTspan1125" style="text-decoration:;">Method</tspan></tspan><tspan id="SvgjsTspan1126" dy="16" x="60"><tspan id="SvgjsTspan1127" style="text-decoration:;">Activation</tspan></tspan></text></g></g><g id="SvgjsG1128" transform="translate(152,136.00000190734863)"><path id="SvgjsPath1129" d="M 0 4Q 0 0 4 0L 47 0Q 51 0 51 4L 51 28Q 51 32 47 32L 4 32Q 0 32 0 28Z" stroke="rgba(50,50,50,1)" stroke-width="2" fill-opacity="1" fill="#ffffff"></path><g id="SvgjsG1130"><text id="SvgjsText1131" font-family="微软雅黑" text-anchor="middle" font-size="12px" width="31px" fill="#323232" font-weight="700" align="middle" lineHeight="125%" anchor="middle" family="微软雅黑" size="12px" weight="700" font-style="" opacity="1" y="7.5" transform="rotate(0)"><tspan id="SvgjsTspan1132" dy="15" x="25.5"><tspan id="SvgjsTspan1133" style="text-decoration:;">hash</tspan></tspan></text></g></g><g id="SvgjsG1134" transform="translate(152,168.00000190734863)"><path id="SvgjsPath1135" d="M 0 4Q 0 0 4 0L 116 0Q 120 0 120 4L 120 32Q 120 36 116 36L 4 36Q 0 36 0 32Z" stroke="rgba(50,50,50,1)" stroke-width="2" fill-opacity="1" fill="#ffffff"></path><g id="SvgjsG1136"><text id="SvgjsText1137" font-family="微软雅黑" text-anchor="middle" font-size="13px" width="100px" fill="#323232" font-weight="700" align="middle" lineHeight="125%" anchor="middle" family="微软雅黑" size="13px" weight="700" font-style="" opacity="1" y="8.375" transform="rotate(0)"><tspan id="SvgjsTspan1138" dy="16" x="60"><tspan id="SvgjsTspan1139" style="text-decoration:;">owner</tspan></tspan></text></g></g><g id="SvgjsG1140" transform="translate(355,116.50000190734863)"><path id="SvgjsPath1141" d="M 0 4Q 0 0 4 0L 238 0Q 242 0 242 4L 242 20.44999933242798Q 242 24.44999933242798 238 24.44999933242798L 4 24.44999933242798Q 0 24.44999933242798 0 20.44999933242798Z" stroke="rgba(50,50,50,1)" stroke-width="2" fill-opacity="1" fill="#ffffff"></path><g id="SvgjsG1142"><text id="SvgjsText1143" font-family="微软雅黑" text-anchor="middle" font-size="13px" width="222px" fill="#323232" font-weight="700" align="middle" lineHeight="125%" anchor="middle" family="微软雅黑" size="13px" weight="700" font-style="" opacity="1" y="2.5999996662139893" transform="rotate(0)"><tspan id="SvgjsTspan1144" dy="16" x="121"><tspan id="SvgjsTspan1145" style="text-decoration:;">stack pointer</tspan></tspan></text></g></g><g id="SvgjsG1146"><path id="SvgjsPath1147" d="M687 129.50000190734863L652 129.50000190734863L652 129.50000190734863L617 129.50000190734863" stroke="#323232" stroke-width="2" fill="none" marker-end="url(#SvgjsMarker1148)"></path></g><g id="SvgjsG1150" transform="translate(621,92.50000190734863)"><path id="SvgjsPath1151" d="M 0 0L 75 0L 75 32L 0 32Z" stroke="none" fill="none"></path><g id="SvgjsG1152"><text id="SvgjsText1153" font-family="微软雅黑" text-anchor="middle" font-size="13px" width="75px" fill="#323232" font-weight="700" align="middle" lineHeight="125%" anchor="middle" family="微软雅黑" size="13px" weight="700" font-style="" opacity="1" y="6.375" transform="rotate(0)"><tspan id="SvgjsTspan1154" dy="16" x="37.5"><tspan id="SvgjsTspan1155" style="text-decoration:;">mark word</tspan></tspan></text></g></g><g id="SvgjsG1156" transform="translate(438.5,75.50000190734863)"><path id="SvgjsPath1157" d="M 0 0L 75 0L 75 32L 0 32Z" stroke="none" fill="none"></path><g id="SvgjsG1158"><text id="SvgjsText1159" font-family="微软雅黑" text-anchor="middle" font-size="13px" width="75px" fill="#323232" font-weight="700" align="middle" lineHeight="125%" anchor="middle" family="微软雅黑" size="13px" weight="700" font-style="" opacity="1" y="6.375" transform="rotate(0)"><tspan id="SvgjsTspan1160" dy="16" x="37.5"><tspan id="SvgjsTspan1161" style="text-decoration:;">Object</tspan></tspan></text></g></g><g id="SvgjsG1162" transform="translate(25,151.50000190734863)"><path id="SvgjsPath1163" d="M 0 0L 105.5 0L 105.5 33L 0 33Z" stroke="none" fill="none"></path><g id="SvgjsG1164"><text id="SvgjsText1165" font-family="微软雅黑" text-anchor="middle" font-size="13px" width="106px" fill="#323232" font-weight="700" align="middle" lineHeight="125%" anchor="middle" family="微软雅黑" size="13px" weight="700" font-style="" opacity="1" y="6.875" transform="rotate(0)"><tspan id="SvgjsTspan1166" dy="16" x="53"><tspan id="SvgjsTspan1167" style="text-decoration:;">Lock Record</tspan></tspan></text></g></g><g id="SvgjsG1168"><path id="SvgjsPath1169" d="M256 69.00000190734863L256 51.00000190734863L256 51.00000190734863L256 33.00000190734863" stroke="#323232" stroke-width="2" fill="none" marker-end="url(#SvgjsMarker1170)"></path></g><g id="SvgjsG1172" transform="translate(195,136.00000190734863)"><path id="SvgjsPath1173" d="M 0 4Q 0 0 4 0L 44 0Q 48 0 48 4L 48 28Q 48 32 44 32L 4 32Q 0 32 0 28Z" stroke="rgba(50,50,50,1)" stroke-width="2" fill-opacity="1" fill="#ffffff"></path><g id="SvgjsG1174"><text id="SvgjsText1175" font-family="微软雅黑" text-anchor="middle" font-size="12px" width="28px" fill="#323232" font-weight="700" align="middle" lineHeight="125%" anchor="middle" family="微软雅黑" size="12px" weight="700" font-style="" opacity="1" y="7.5" transform="rotate(0)"><tspan id="SvgjsTspan1176" dy="15" x="24"><tspan id="SvgjsTspan1177" style="text-decoration:;">age</tspan></tspan></text></g></g><g id="SvgjsG1178" transform="translate(235,135.4500012397766)"><path id="SvgjsPath1179" d="M 0 4Q 0 0 4 0L 33 0Q 37 0 37 4L 37 28Q 37 32 33 32L 4 32Q 0 32 0 28Z" stroke="rgba(50,50,50,1)" stroke-width="2" fill-opacity="1" fill="#ffffff"></path><g id="SvgjsG1180"><text id="SvgjsText1181" font-family="微软雅黑" text-anchor="middle" font-size="12px" width="17px" fill="#323232" font-weight="700" align="middle" lineHeight="125%" anchor="middle" family="微软雅黑" size="12px" weight="700" font-style="" opacity="1" y="7.5" transform="rotate(0)"><tspan id="SvgjsTspan1182" dy="15" x="18.5"><tspan id="SvgjsTspan1183" style="text-decoration:;">01</tspan></tspan></text></g></g><g id="SvgjsG1184"><path id="SvgjsPath1185" d="M354.03549811545736 128.98907753746983L275.47220678435383 150.49932776971076" stroke="#323232" stroke-width="2" fill="none" marker-end="url(#SvgjsMarker1186)"></path></g><g id="SvgjsG1188"><path id="SvgjsPath1189" d="M272.92142627169414 185.6114486602487L351.68286542190117 152.39879359690838" stroke="#323232" stroke-width="2" fill="none" marker-end="url(#SvgjsMarker1190)"></path></g><g id="SvgjsG1192" transform="translate(294.5,116.00000190734863)"><path id="SvgjsPath1193" d="M 0 0L 38 0L 38 20L 0 20Z" stroke="none" fill="none"></path><g id="SvgjsG1194"><text id="SvgjsText1195" font-family="微软雅黑" text-anchor="middle" font-size="13px" width="38px" fill="#323232" font-weight="700" align="middle" lineHeight="125%" anchor="middle" family="微软雅黑" size="13px" weight="700" font-style="" opacity="1" y="0.375" transform="rotate(0)"><tspan id="SvgjsTspan1196" dy="16" x="19"><tspan id="SvgjsTspan1197" style="text-decoration:;">（2）</tspan></tspan></text></g></g><g id="SvgjsG1198" transform="translate(304,172.00000190734863)"><path id="SvgjsPath1199" d="M 0 0L 38 0L 38 20L 0 20Z" stroke="none" fill="none"></path><g id="SvgjsG1200"><text id="SvgjsText1201" font-family="微软雅黑" text-anchor="middle" font-size="13px" width="38px" fill="#323232" font-weight="700" align="middle" lineHeight="125%" anchor="middle" family="微软雅黑" size="13px" weight="700" font-style="" opacity="1" y="0.375" transform="rotate(0)"><tspan id="SvgjsTspan1202" dy="16" x="19"><tspan id="SvgjsTspan1203" style="text-decoration:;">（3）</tspan></tspan></text></g></g></svg>