<svg id="SvgjsSvg1860" width="375.5750732421875" height="87.39999389648438" xmlns="http://www.w3.org/2000/svg" version="1.1" xmlns:xlink="http://www.w3.org/1999/xlink" xmlns:svgjs="http://svgjs.com/svgjs"><defs id="SvgjsDefs1861"></defs><g id="SvgjsG1862" transform="translate(25.00892857142844,25.003566827092925)"><path id="SvgjsPath1863" d="M 0 4Q 0 0 4 0L 27.967135809705304 0Q 31.967135809705304 0 31.967135809705304 4L 31.967135809705304 17.858552651423807Q 31.967135809705304 21.858552651423807 27.967135809705304 21.858552651423807L 4 21.858552651423807Q 0 21.858552651423807 0 17.858552651423807Z" stroke="rgba(50,50,50,1)" stroke-width="2" fill-opacity="1" fill="#ffb74d"></path><g id="SvgjsG1864"><text id="SvgjsText1865" font-family="微软雅黑" text-anchor="middle" font-size="13px" width="12px" fill="#323232" font-weight="400" align="middle" lineHeight="125%" anchor="middle" family="微软雅黑" size="13px" weight="400" font-style="" opacity="1" y="1.3042763257119034" transform="rotate(0)"><tspan id="SvgjsTspan1866" dy="16" x="16"><tspan id="SvgjsTspan1867" style="text-decoration:;">0</tspan></tspan></text></g></g><g id="SvgjsG1868" transform="translate(28.76671234013827,48.40262731636474)"><path id="SvgjsPath1869" d="M 0 0L 23.486058962232477 0L 23.486058962232477 14.572368434282536L 0 14.572368434282536Z" stroke="none" fill="none"></path><g id="SvgjsG1870"><text id="SvgjsText1871" font-family="微软雅黑" text-anchor="middle" font-size="13px" width="24px" fill="#323232" font-weight="400" align="middle" lineHeight="125%" anchor="middle" family="微软雅黑" size="13px" weight="400" font-style="" opacity="1" y="-2.338815782858732" transform="rotate(0)"><tspan id="SvgjsTspan1872" dy="16" x="12"><tspan id="SvgjsTspan1873" style="text-decoration:;">1</tspan></tspan></text></g></g><g id="SvgjsG1874" transform="translate(57.62845490786253,25.003566827092897)"><path id="SvgjsPath1875" d="M 0 4Q 0 0 4 0L 27.967135809705304 0Q 31.967135809705304 0 31.967135809705304 4L 31.967135809705304 17.858552651423807Q 31.967135809705304 21.858552651423807 27.967135809705304 21.858552651423807L 4 21.858552651423807Q 0 21.858552651423807 0 17.858552651423807Z" stroke="rgba(50,50,50,1)" stroke-width="2" fill-opacity="1" fill="#ffb74d"></path><g id="SvgjsG1876"><text id="SvgjsText1877" font-family="微软雅黑" text-anchor="middle" font-size="13px" width="12px" fill="#323232" font-weight="400" align="middle" lineHeight="125%" anchor="middle" family="微软雅黑" size="13px" weight="400" font-style="" opacity="1" y="1.3042763257119034" transform="rotate(0)"><tspan id="SvgjsTspan1878" dy="16" x="16"><tspan id="SvgjsTspan1879" style="text-decoration:;">0</tspan></tspan></text></g></g><g id="SvgjsG1880" transform="translate(61.38623867657225,48.402627316364715)"><path id="SvgjsPath1881" d="M 0 0L 23.486058962232477 0L 23.486058962232477 14.572368434282536L 0 14.572368434282536Z" stroke="none" fill="none"></path><g id="SvgjsG1882"><text id="SvgjsText1883" font-family="微软雅黑" text-anchor="middle" font-size="13px" width="24px" fill="#323232" font-weight="400" align="middle" lineHeight="125%" anchor="middle" family="微软雅黑" size="13px" weight="400" font-style="" opacity="1" y="-2.338815782858732" transform="rotate(0)"><tspan id="SvgjsTspan1884" dy="16" x="12"><tspan id="SvgjsTspan1885" style="text-decoration:;">2</tspan></tspan></text></g></g><g id="SvgjsG1886" transform="translate(90.24798124429628,25.003566827092726)"><path id="SvgjsPath1887" d="M 0 4Q 0 0 4 0L 27.967135809705304 0Q 31.967135809705304 0 31.967135809705304 4L 31.967135809705304 17.858552651423807Q 31.967135809705304 21.858552651423807 27.967135809705304 21.858552651423807L 4 21.858552651423807Q 0 21.858552651423807 0 17.858552651423807Z" stroke="rgba(50,50,50,1)" stroke-width="2" fill-opacity="1" fill="#ffb74d"></path><g id="SvgjsG1888"><text id="SvgjsText1889" font-family="微软雅黑" text-anchor="middle" font-size="13px" width="12px" fill="#323232" font-weight="400" align="middle" lineHeight="125%" anchor="middle" family="微软雅黑" size="13px" weight="400" font-style="" opacity="1" y="1.3042763257119034" transform="rotate(0)"><tspan id="SvgjsTspan1890" dy="16" x="16"><tspan id="SvgjsTspan1891" style="text-decoration:;">0</tspan></tspan></text></g></g><g id="SvgjsG1892" transform="translate(94.00576501300611,48.402627316364544)"><path id="SvgjsPath1893" d="M 0 0L 23.486058962232477 0L 23.486058962232477 14.572368434282536L 0 14.572368434282536Z" stroke="none" fill="none"></path><g id="SvgjsG1894"><text id="SvgjsText1895" font-family="微软雅黑" text-anchor="middle" font-size="13px" width="24px" fill="#323232" font-weight="400" align="middle" lineHeight="125%" anchor="middle" family="微软雅黑" size="13px" weight="400" font-style="" opacity="1" y="-2.338815782858732" transform="rotate(0)"><tspan id="SvgjsTspan1896" dy="16" x="12"><tspan id="SvgjsTspan1897" style="text-decoration:;">3</tspan></tspan></text></g></g><g id="SvgjsG1898" transform="translate(122.86750758073038,25.003566827092556)"><path id="SvgjsPath1899" d="M 0 4Q 0 0 4 0L 27.967135809705304 0Q 31.967135809705304 0 31.967135809705304 4L 31.967135809705304 17.858552651423807Q 31.967135809705304 21.858552651423807 27.967135809705304 21.858552651423807L 4 21.858552651423807Q 0 21.858552651423807 0 17.858552651423807Z" stroke="rgba(50,50,50,1)" stroke-width="2" fill-opacity="1" fill="#ffb74d"></path><g id="SvgjsG1900"><text id="SvgjsText1901" font-family="微软雅黑" text-anchor="middle" font-size="13px" width="12px" fill="#323232" font-weight="400" align="middle" lineHeight="125%" anchor="middle" family="微软雅黑" size="13px" weight="400" font-style="" opacity="1" y="1.3042763257119034" transform="rotate(0)"><tspan id="SvgjsTspan1902" dy="16" x="16"><tspan id="SvgjsTspan1903" style="text-decoration:;">0</tspan></tspan></text></g></g><g id="SvgjsG1904" transform="translate(126.6252913494402,48.402627316364374)"><path id="SvgjsPath1905" d="M 0 0L 23.486058962232477 0L 23.486058962232477 14.572368434282536L 0 14.572368434282536Z" stroke="none" fill="none"></path><g id="SvgjsG1906"><text id="SvgjsText1907" font-family="微软雅黑" text-anchor="middle" font-size="13px" width="24px" fill="#323232" font-weight="400" align="middle" lineHeight="125%" anchor="middle" family="微软雅黑" size="13px" weight="400" font-style="" opacity="1" y="-2.338815782858732" transform="rotate(0)"><tspan id="SvgjsTspan1908" dy="16" x="12"><tspan id="SvgjsTspan1909" style="text-decoration:;">4</tspan></tspan></text></g></g><g id="SvgjsG1910" transform="translate(155.48703391716435,25.003566827092584)"><path id="SvgjsPath1911" d="M 0 4Q 0 0 4 0L 27.967135809705304 0Q 31.967135809705304 0 31.967135809705304 4L 31.967135809705304 17.858552651423807Q 31.967135809705304 21.858552651423807 27.967135809705304 21.858552651423807L 4 21.858552651423807Q 0 21.858552651423807 0 17.858552651423807Z" stroke="rgba(50,50,50,1)" stroke-width="2" fill-opacity="1" fill="#ffb74d"></path><g id="SvgjsG1912"><text id="SvgjsText1913" font-family="微软雅黑" text-anchor="middle" font-size="13px" width="12px" fill="#323232" font-weight="400" align="middle" lineHeight="125%" anchor="middle" family="微软雅黑" size="13px" weight="400" font-style="" opacity="1" y="1.3042763257119034" transform="rotate(0)"><tspan id="SvgjsTspan1914" dy="16" x="16"><tspan id="SvgjsTspan1915" style="text-decoration:;">0</tspan></tspan></text></g></g><g id="SvgjsG1916" transform="translate(159.24481768587418,48.40262731636443)"><path id="SvgjsPath1917" d="M 0 0L 23.486058962232477 0L 23.486058962232477 14.572368434282536L 0 14.572368434282536Z" stroke="none" fill="none"></path><g id="SvgjsG1918"><text id="SvgjsText1919" font-family="微软雅黑" text-anchor="middle" font-size="13px" width="24px" fill="#323232" font-weight="400" align="middle" lineHeight="125%" anchor="middle" family="微软雅黑" size="13px" weight="400" font-style="" opacity="1" y="-2.338815782858732" transform="rotate(0)"><tspan id="SvgjsTspan1920" dy="16" x="12"><tspan id="SvgjsTspan1921" style="text-decoration:;">5</tspan></tspan></text></g></g><g id="SvgjsG1922" transform="translate(188.10656025359822,25.003566827092925)"><path id="SvgjsPath1923" d="M 0 4Q 0 0 4 0L 27.967135809705304 0Q 31.967135809705304 0 31.967135809705304 4L 31.967135809705304 17.858552651423807Q 31.967135809705304 21.858552651423807 27.967135809705304 21.858552651423807L 4 21.858552651423807Q 0 21.858552651423807 0 17.858552651423807Z" stroke="rgba(50,50,50,1)" stroke-width="2" fill-opacity="1" fill="#ffb74d"></path><g id="SvgjsG1924"><text id="SvgjsText1925" font-family="微软雅黑" text-anchor="middle" font-size="13px" width="12px" fill="#323232" font-weight="400" align="middle" lineHeight="125%" anchor="middle" family="微软雅黑" size="13px" weight="400" font-style="" opacity="1" y="1.3042763257119034" transform="rotate(0)"><tspan id="SvgjsTspan1926" dy="16" x="16"><tspan id="SvgjsTspan1927" style="text-decoration:;">0</tspan></tspan></text></g></g><g id="SvgjsG1928" transform="translate(191.86434402230805,48.40262731636474)"><path id="SvgjsPath1929" d="M 0 0L 23.486058962232477 0L 23.486058962232477 14.572368434282536L 0 14.572368434282536Z" stroke="none" fill="none"></path><g id="SvgjsG1930"><text id="SvgjsText1931" font-family="微软雅黑" text-anchor="middle" font-size="13px" width="24px" fill="#323232" font-weight="400" align="middle" lineHeight="125%" anchor="middle" family="微软雅黑" size="13px" weight="400" font-style="" opacity="1" y="-2.338815782858732" transform="rotate(0)"><tspan id="SvgjsTspan1932" dy="16" x="12"><tspan id="SvgjsTspan1933" style="text-decoration:;">6</tspan></tspan></text></g></g><g id="SvgjsG1934" transform="translate(220.7260865900322,25.003566827092897)"><path id="SvgjsPath1935" d="M 0 4Q 0 0 4 0L 27.967135809705304 0Q 31.967135809705304 0 31.967135809705304 4L 31.967135809705304 17.858552651423807Q 31.967135809705304 21.858552651423807 27.967135809705304 21.858552651423807L 4 21.858552651423807Q 0 21.858552651423807 0 17.858552651423807Z" stroke="rgba(50,50,50,1)" stroke-width="2" fill-opacity="1" fill="#ffb74d"></path><g id="SvgjsG1936"><text id="SvgjsText1937" font-family="微软雅黑" text-anchor="middle" font-size="13px" width="12px" fill="#323232" font-weight="400" align="middle" lineHeight="125%" anchor="middle" family="微软雅黑" size="13px" weight="400" font-style="" opacity="1" y="1.3042763257119034" transform="rotate(0)"><tspan id="SvgjsTspan1938" dy="16" x="16"><tspan id="SvgjsTspan1939" style="text-decoration:;">0</tspan></tspan></text></g></g><g id="SvgjsG1940" transform="translate(224.48387035874202,48.402627316364715)"><path id="SvgjsPath1941" d="M 0 0L 23.486058962232477 0L 23.486058962232477 14.572368434282536L 0 14.572368434282536Z" stroke="none" fill="none"></path><g id="SvgjsG1942"><text id="SvgjsText1943" font-family="微软雅黑" text-anchor="middle" font-size="13px" width="24px" fill="#323232" font-weight="400" align="middle" lineHeight="125%" anchor="middle" family="微软雅黑" size="13px" weight="400" font-style="" opacity="1" y="-2.338815782858732" transform="rotate(0)"><tspan id="SvgjsTspan1944" dy="16" x="12"><tspan id="SvgjsTspan1945" style="text-decoration:;">7</tspan></tspan></text></g></g><g id="SvgjsG1946" transform="translate(253.34561292646606,25.003566827092726)"><path id="SvgjsPath1947" d="M 0 4Q 0 0 4 0L 27.967135809705304 0Q 31.967135809705304 0 31.967135809705304 4L 31.967135809705304 17.858552651423807Q 31.967135809705304 21.858552651423807 27.967135809705304 21.858552651423807L 4 21.858552651423807Q 0 21.858552651423807 0 17.858552651423807Z" stroke="rgba(50,50,50,1)" stroke-width="2" fill-opacity="1" fill="#ffb74d"></path><g id="SvgjsG1948"><text id="SvgjsText1949" font-family="微软雅黑" text-anchor="middle" font-size="13px" width="12px" fill="#323232" font-weight="400" align="middle" lineHeight="125%" anchor="middle" family="微软雅黑" size="13px" weight="400" font-style="" opacity="1" y="1.3042763257119034" transform="rotate(0)"><tspan id="SvgjsTspan1950" dy="16" x="16"><tspan id="SvgjsTspan1951" style="text-decoration:;">0</tspan></tspan></text></g></g><g id="SvgjsG1952" transform="translate(257.1033966951758,48.402627316364544)"><path id="SvgjsPath1953" d="M 0 0L 23.486058962232477 0L 23.486058962232477 14.572368434282536L 0 14.572368434282536Z" stroke="none" fill="none"></path><g id="SvgjsG1954"><text id="SvgjsText1955" font-family="微软雅黑" text-anchor="middle" font-size="13px" width="24px" fill="#323232" font-weight="400" align="middle" lineHeight="125%" anchor="middle" family="微软雅黑" size="13px" weight="400" font-style="" opacity="1" y="-2.338815782858732" transform="rotate(0)"><tspan id="SvgjsTspan1956" dy="16" x="12"><tspan id="SvgjsTspan1957" style="text-decoration:;">8</tspan></tspan></text></g></g><g id="SvgjsG1958" transform="translate(285.96513926290004,25.003566827092556)"><path id="SvgjsPath1959" d="M 0 4Q 0 0 4 0L 27.967135809705304 0Q 31.967135809705304 0 31.967135809705304 4L 31.967135809705304 17.858552651423807Q 31.967135809705304 21.858552651423807 27.967135809705304 21.858552651423807L 4 21.858552651423807Q 0 21.858552651423807 0 17.858552651423807Z" stroke="rgba(50,50,50,1)" stroke-width="2" fill-opacity="1" fill="#ffb74d"></path><g id="SvgjsG1960"><text id="SvgjsText1961" font-family="微软雅黑" text-anchor="middle" font-size="13px" width="12px" fill="#323232" font-weight="400" align="middle" lineHeight="125%" anchor="middle" family="微软雅黑" size="13px" weight="400" font-style="" opacity="1" y="1.3042763257119034" transform="rotate(0)"><tspan id="SvgjsTspan1962" dy="16" x="16"><tspan id="SvgjsTspan1963" style="text-decoration:;">0</tspan></tspan></text></g></g><g id="SvgjsG1964" transform="translate(289.72292303160987,48.402627316364374)"><path id="SvgjsPath1965" d="M 0 0L 23.486058962232477 0L 23.486058962232477 14.572368434282536L 0 14.572368434282536Z" stroke="none" fill="none"></path><g id="SvgjsG1966"><text id="SvgjsText1967" font-family="微软雅黑" text-anchor="middle" font-size="13px" width="24px" fill="#323232" font-weight="400" align="middle" lineHeight="125%" anchor="middle" family="微软雅黑" size="13px" weight="400" font-style="" opacity="1" y="-2.338815782858732" transform="rotate(0)"><tspan id="SvgjsTspan1968" dy="16" x="12"><tspan id="SvgjsTspan1969" style="text-decoration:;">9</tspan></tspan></text></g></g><g id="SvgjsG1970" transform="translate(318.58466559933413,25.003566827092584)"><path id="SvgjsPath1971" d="M 0 4Q 0 0 4 0L 27.967135809705304 0Q 31.967135809705304 0 31.967135809705304 4L 31.967135809705304 17.858552651423807Q 31.967135809705304 21.858552651423807 27.967135809705304 21.858552651423807L 4 21.858552651423807Q 0 21.858552651423807 0 17.858552651423807Z" stroke="rgba(50,50,50,1)" stroke-width="2" fill-opacity="1" fill="#ffb74d"></path><g id="SvgjsG1972"><text id="SvgjsText1973" font-family="微软雅黑" text-anchor="middle" font-size="13px" width="12px" fill="#323232" font-weight="400" align="middle" lineHeight="125%" anchor="middle" family="微软雅黑" size="13px" weight="400" font-style="" opacity="1" y="1.3042763257119034" transform="rotate(0)"><tspan id="SvgjsTspan1974" dy="16" x="16"><tspan id="SvgjsTspan1975" style="text-decoration:;">0</tspan></tspan></text></g></g><g id="SvgjsG1976" transform="translate(322.34244936804384,48.40262731636443)"><path id="SvgjsPath1977" d="M 0 0L 23.486058962232477 0L 23.486058962232477 14.572368434282536L 0 14.572368434282536Z" stroke="none" fill="none"></path><g id="SvgjsG1978"><text id="SvgjsText1979" font-family="微软雅黑" text-anchor="middle" font-size="13px" width="24px" fill="#323232" font-weight="400" align="middle" lineHeight="125%" anchor="middle" family="微软雅黑" size="13px" weight="400" font-style="" opacity="1" y="-2.338815782858732" transform="rotate(0)"><tspan id="SvgjsTspan1980" dy="16" x="12"><tspan id="SvgjsTspan1981" style="text-decoration:;">10</tspan></tspan></text></g></g></svg>