<svg id="SvgjsSvg1006" width="715" height="335" xmlns="http://www.w3.org/2000/svg" version="1.1" xmlns:xlink="http://www.w3.org/1999/xlink" xmlns:svgjs="http://svgjs.com/svgjs"><defs id="SvgjsDefs1007"><marker id="SvgjsMarker1071" markerWidth="14" markerHeight="10" refX="10" refY="5" viewBox="0 0 14 10" orient="auto" markerUnits="userSpaceOnUse" stroke-dasharray="0,0"><path id="SvgjsPath1072" d="M0,0 L14,5 L0,10 L0,0" fill="#323232" stroke="#323232" stroke-width="1"></path></marker><marker id="SvgjsMarker1093" markerWidth="14" markerHeight="10" refX="10" refY="5" viewBox="0 0 14 10" orient="auto" markerUnits="userSpaceOnUse" stroke-dasharray="0,0"><path id="SvgjsPath1094" d="M0,0 L14,5 L0,10 L0,0" fill="#323232" stroke="#323232" stroke-width="1"></path></marker></defs><g id="SvgjsG1008" transform="translate(34,136)"><path id="SvgjsPath1009" d="M 113 0Q 104 0 104 8.5L 104 34Q 104 42.5 91 42.5Q 104 42.5 104 51L 104 76.5Q 104 85 113 85" stroke="rgba(50,50,50,1)" stroke-width="2" fill="none"></path><path id="SvgjsPath1010" d="M 0 0L 113 0L 113 85L 0 85Z" stroke="none" fill="none"></path><g id="SvgjsG1011"><text id="SvgjsText1012" font-family="微软雅黑" text-anchor="end" font-size="13px" width="86px" fill="#323232" font-weight="400" align="middle" lineHeight="125%" anchor="end" family="微软雅黑" size="13px" weight="400" font-style="" opacity="1" y="32.875" transform="rotate(0)"></text></g></g><g id="SvgjsG1013" transform="translate(147,26)"><path id="SvgjsPath1014" d="M 0 4Q 0 0 4 0L 103 0Q 107 0 107 4L 107 280Q 107 284 103 284L 4 284Q 0 284 0 280Z" stroke="rgba(50,50,50,1)" stroke-width="2" fill-opacity="1" fill="#ffffff"></path><g id="SvgjsG1015"><text id="SvgjsText1016" font-family="微软雅黑" text-anchor="middle" font-size="13px" width="87px" fill="#323232" font-weight="700" align="middle" lineHeight="125%" anchor="middle" family="微软雅黑" size="13px" weight="700" font-style="" opacity="1" y="132.375" transform="rotate(0)"></text></g></g><g id="SvgjsG1017" transform="translate(349,112)"><path id="SvgjsPath1018" d="M 0 4Q 0 0 4 0L 238 0Q 242 0 242 4L 242 63Q 242 67 238 67L 4 67Q 0 67 0 63Z" stroke="rgba(50,50,50,1)" stroke-width="2" fill-opacity="1" fill="#ffffff"></path><g id="SvgjsG1019"><text id="SvgjsText1020" font-family="微软雅黑" text-anchor="middle" font-size="13px" width="222px" fill="#323232" font-weight="700" align="middle" lineHeight="125%" anchor="middle" family="微软雅黑" size="13px" weight="700" font-style="" opacity="1" y="23.875" transform="rotate(0)"></text></g></g><g id="SvgjsG1021" transform="translate(147,25)"><path id="SvgjsPath1022" d="M 0 4Q 0 0 4 0L 103 0Q 107 0 107 4L 107 49Q 107 53 103 53L 4 53Q 0 53 0 49Z" stroke="rgba(50,50,50,1)" stroke-width="2" fill-opacity="1" fill="#ffffff"></path><g id="SvgjsG1023"><text id="SvgjsText1024" font-family="微软雅黑" text-anchor="middle" font-size="13px" width="87px" fill="#323232" font-weight="700" align="middle" lineHeight="125%" anchor="middle" family="微软雅黑" size="13px" weight="700" font-style="" opacity="1" y="8.875" transform="rotate(0)"><tspan id="SvgjsTspan1025" dy="16" x="53.5"><tspan id="SvgjsTspan1026" style="text-decoration:;">Execution </tspan></tspan><tspan id="SvgjsTspan1027" dy="16" x="53.5"><tspan id="SvgjsTspan1028" style="text-decoration:;">Stack</tspan></tspan></text></g></g><g id="SvgjsG1029" transform="translate(147,78)"><path id="SvgjsPath1030" d="M 0 4Q 0 0 4 0L 103 0Q 107 0 107 4L 107 54Q 107 58 103 58L 4 58Q 0 58 0 54Z" stroke="rgba(50,50,50,1)" stroke-width="2" fill-opacity="1" fill="#ffffff"></path><g id="SvgjsG1031"><text id="SvgjsText1032" font-family="微软雅黑" text-anchor="middle" font-size="13px" width="87px" fill="#323232" font-weight="700" align="middle" lineHeight="125%" anchor="middle" family="微软雅黑" size="13px" weight="700" font-style="" opacity="1" y="11.375" transform="rotate(0)"><tspan id="SvgjsTspan1033" dy="16" x="53.5"><tspan id="SvgjsTspan1034" style="text-decoration:;">Method</tspan></tspan><tspan id="SvgjsTspan1035" dy="16" x="53.5"><tspan id="SvgjsTspan1036" style="text-decoration:;">Activation</tspan></tspan></text></g></g><g id="SvgjsG1037" transform="translate(147,135)"><path id="SvgjsPath1038" d="M 0 4Q 0 0 4 0L 103 0Q 107 0 107 4L 107 46Q 107 50 103 50L 4 50Q 0 50 0 46Z" stroke="rgba(50,50,50,1)" stroke-width="2" fill-opacity="1" fill="#ffffff"></path><g id="SvgjsG1039"><text id="SvgjsText1040" font-family="微软雅黑" text-anchor="middle" font-size="13px" width="87px" fill="#323232" font-weight="700" align="middle" lineHeight="125%" anchor="middle" family="微软雅黑" size="13px" weight="700" font-style="" opacity="1" y="7.375" transform="rotate(0)"><tspan id="SvgjsTspan1041" dy="16" x="53.5"><tspan id="SvgjsTspan1042" style="text-decoration:;">displaced </tspan></tspan><tspan id="SvgjsTspan1043" dy="16" x="53.5"><tspan id="SvgjsTspan1044" style="text-decoration:;">header</tspan></tspan></text></g></g><g id="SvgjsG1045" transform="translate(147,185)"><path id="SvgjsPath1046" d="M 0 4Q 0 0 4 0L 103 0Q 107 0 107 4L 107 32Q 107 36 103 36L 4 36Q 0 36 0 32Z" stroke="rgba(50,50,50,1)" stroke-width="2" fill-opacity="1" fill="#ffffff"></path><g id="SvgjsG1047"><text id="SvgjsText1048" font-family="微软雅黑" text-anchor="middle" font-size="13px" width="87px" fill="#323232" font-weight="700" align="middle" lineHeight="125%" anchor="middle" family="微软雅黑" size="13px" weight="700" font-style="" opacity="1" y="8.375" transform="rotate(0)"><tspan id="SvgjsTspan1049" dy="16" x="53.5"><tspan id="SvgjsTspan1050" style="text-decoration:;">owner</tspan></tspan></text></g></g><g id="SvgjsG1051" transform="translate(349,111)"><path id="SvgjsPath1052" d="M 0 4Q 0 0 4 0L 126 0Q 130 0 130 4L 130 21Q 130 25 126 25L 4 25Q 0 25 0 21Z" stroke="rgba(50,50,50,1)" stroke-width="2" fill-opacity="1" fill="#ffffff"></path><g id="SvgjsG1053"><text id="SvgjsText1054" font-family="微软雅黑" text-anchor="middle" font-size="13px" width="110px" fill="#323232" font-weight="700" align="middle" lineHeight="125%" anchor="middle" family="微软雅黑" size="13px" weight="700" font-style="" opacity="1" y="2.875" transform="rotate(0)"><tspan id="SvgjsTspan1055" dy="16" x="65"><tspan id="SvgjsTspan1056" style="text-decoration:;">hash</tspan></tspan></text></g></g><g id="SvgjsG1057" transform="translate(471,111)"><path id="SvgjsPath1058" d="M 0 4Q 0 0 4 0L 63 0Q 67 0 67 4L 67 21Q 67 25 63 25L 4 25Q 0 25 0 21Z" stroke="rgba(50,50,50,1)" stroke-width="2" fill-opacity="1" fill="#ffffff"></path><g id="SvgjsG1059"><text id="SvgjsText1060" font-family="微软雅黑" text-anchor="middle" font-size="13px" width="47px" fill="#323232" font-weight="700" align="middle" lineHeight="125%" anchor="middle" family="微软雅黑" size="13px" weight="700" font-style="" opacity="1" y="2.875" transform="rotate(0)"><tspan id="SvgjsTspan1061" dy="16" x="33.5"><tspan id="SvgjsTspan1062" style="text-decoration:;">age</tspan></tspan></text></g></g><g id="SvgjsG1063" transform="translate(535,111)"><path id="SvgjsPath1064" d="M 0 4Q 0 0 4 0L 52 0Q 56 0 56 4L 56 21Q 56 25 52 25L 4 25Q 0 25 0 21Z" stroke="rgba(50,50,50,1)" stroke-width="2" fill-opacity="1" fill="#ffffff"></path><g id="SvgjsG1065"><text id="SvgjsText1066" font-family="微软雅黑" text-anchor="middle" font-size="13px" width="36px" fill="#323232" font-weight="700" align="middle" lineHeight="125%" anchor="middle" family="微软雅黑" size="13px" weight="700" font-style="" opacity="1" y="2.875" transform="rotate(0)"><tspan id="SvgjsTspan1067" dy="16" x="28"><tspan id="SvgjsTspan1068" style="text-decoration:;">01</tspan></tspan></text></g></g><g id="SvgjsG1069"><path id="SvgjsPath1070" d="M681 124L646 124L646 124L611 124" stroke="#323232" stroke-width="2" fill="none" marker-end="url(#SvgjsMarker1071)"></path></g><g id="SvgjsG1073" transform="translate(615,87)"><path id="SvgjsPath1074" d="M 0 0L 75 0L 75 32L 0 32Z" stroke="none" fill="none"></path><g id="SvgjsG1075"><text id="SvgjsText1076" font-family="微软雅黑" text-anchor="middle" font-size="13px" width="75px" fill="#323232" font-weight="700" align="middle" lineHeight="125%" anchor="middle" family="微软雅黑" size="13px" weight="700" font-style="" opacity="1" y="6.375" transform="rotate(0)"><tspan id="SvgjsTspan1077" dy="16" x="37.5"><tspan id="SvgjsTspan1078" style="text-decoration:;">mark word</tspan></tspan></text></g></g><g id="SvgjsG1079" transform="translate(432.5,70)"><path id="SvgjsPath1080" d="M 0 0L 75 0L 75 32L 0 32Z" stroke="none" fill="none"></path><g id="SvgjsG1081"><text id="SvgjsText1082" font-family="微软雅黑" text-anchor="middle" font-size="13px" width="75px" fill="#323232" font-weight="700" align="middle" lineHeight="125%" anchor="middle" family="微软雅黑" size="13px" weight="700" font-style="" opacity="1" y="6.375" transform="rotate(0)"><tspan id="SvgjsTspan1083" dy="16" x="37.5"><tspan id="SvgjsTspan1084" style="text-decoration:;">Object</tspan></tspan></text></g></g><g id="SvgjsG1085" transform="translate(25,162)"><path id="SvgjsPath1086" d="M 0 0L 105.5 0L 105.5 33L 0 33Z" stroke="none" fill="none"></path><g id="SvgjsG1087"><text id="SvgjsText1088" font-family="微软雅黑" text-anchor="middle" font-size="13px" width="106px" fill="#323232" font-weight="700" align="middle" lineHeight="125%" anchor="middle" family="微软雅黑" size="13px" weight="700" font-style="" opacity="1" y="6.875" transform="rotate(0)"><tspan id="SvgjsTspan1089" dy="16" x="53"><tspan id="SvgjsTspan1090" style="text-decoration:;">Lock Record</tspan></tspan></text></g></g><g id="SvgjsG1091"><path id="SvgjsPath1092" d="M241 69L241 51L241 51L241 33" stroke="#323232" stroke-width="2" fill="none" marker-end="url(#SvgjsMarker1093)"></path></g></svg>